<svg width="40" height="40" viewBox="0 0 40 40" fill="none" xmlns="http://www.w3.org/2000/svg">
<path d="M17.1977 1.24328C17.6653 1.27529 18.1697 1.2913 18.7111 1.2913C19.1787 1.2913 19.7078 1.30731 20.2985 1.33932C20.9137 1.33932 21.5535 1.30731 22.218 1.24328C21.6274 1.59543 21.1106 2.10766 20.6676 2.77995C20.2246 3.45224 19.8678 4.12454 19.5971 4.79683C19.2526 5.59718 18.9695 6.42955 18.7481 7.29392C18.625 7.80615 18.5266 8.71855 18.4527 10.0311C18.3789 11.3117 18.3174 12.8163 18.2682 14.5451C18.2436 16.2739 18.2313 18.0986 18.2313 20.0195C18.2313 21.9403 18.2436 23.7811 18.2682 25.5419C18.2928 27.2707 18.3297 28.8073 18.3789 30.1519C18.4281 31.4965 18.4897 32.4409 18.5635 32.9852C18.6619 33.6254 18.785 34.2337 18.9326 34.81C19.0557 35.3222 19.2156 35.8504 19.4125 36.3946C19.6094 36.9069 19.8555 37.3231 20.1508 37.6432L16.3856 39.8522C16.1887 39.5 16.0287 39.1318 15.9057 38.7477C15.7826 38.3955 15.6842 38.0754 15.6104 37.7873C15.5119 37.4351 15.4504 37.115 15.4258 36.8268C15.3766 36.4427 15.3274 36.0265 15.2781 35.5783C15.2289 35.0981 15.1674 34.6499 15.0936 34.2337C15.0444 33.7855 15.0074 33.4173 14.9828 33.1292C14.9582 32.8411 14.9582 32.665 14.9828 32.601C15.0074 32.537 14.8598 32.8251 14.5399 33.4654C14.2199 34.0736 13.7401 34.7939 13.1002 35.6263C12.485 36.4267 11.7221 37.211 10.8115 37.9793C9.90099 38.7157 8.8797 39.1799 7.74767 39.372C6.59103 39.564 5.52052 39.2759 4.53615 38.5076C3.57638 37.7392 2.75197 36.6668 2.06291 35.2902C1.37384 33.8815 0.844741 32.2648 0.475601 30.44C0.131069 28.5832 -0.00428234 26.6944 0.0695458 24.7736C0.118765 23.493 0.340249 22.3565 0.733999 21.3641C1.12775 20.3396 1.61994 19.4592 2.21056 18.7229C2.8258 17.9546 3.49025 17.3143 4.20392 16.8021C4.9422 16.2578 5.65587 15.8096 6.34494 15.4575C7.05861 15.1053 7.72306 14.8492 8.3383 14.6892C8.95353 14.5291 9.44572 14.417 9.81486 14.353C10.2578 14.321 10.7623 14.417 11.3283 14.6411C11.8205 14.8332 12.3865 15.1534 13.0264 15.6016C13.6908 16.0498 14.4291 16.722 15.2412 17.6184C15.0936 14.417 14.9582 11.8559 14.8352 9.93508C14.7121 7.98222 14.5891 6.49357 14.466 5.46913C14.343 4.25259 14.2322 3.42023 14.1338 2.97203C14.0108 2.65189 13.8508 2.33175 13.6539 2.01161C13.4817 1.7555 13.2602 1.49939 12.9895 1.24328C12.7434 0.955152 12.4481 0.731054 12.1035 0.570984C12.7434 0.731054 13.3586 0.843103 13.9492 0.907131C14.5399 0.971159 15.0813 1.03519 15.5735 1.09921C16.1395 1.16324 16.6809 1.21126 17.1977 1.24328ZM7.93224 19.1551C7.46466 19.3792 7.08322 19.7634 6.78791 20.3076C6.5172 20.8519 6.29572 21.5081 6.12345 22.2765C5.95119 23.0128 5.82814 23.8131 5.75431 24.6775C5.70509 25.5099 5.66818 26.3262 5.64357 27.1266C5.64357 27.8949 5.64357 28.5992 5.64357 29.2395C5.64357 29.8798 5.64357 30.36 5.64357 30.6802C5.64357 30.8722 5.66818 31.2244 5.7174 31.7366C5.79123 32.2168 5.93888 32.729 6.16037 33.2733C6.38185 33.7855 6.68947 34.2497 7.08322 34.6659C7.50158 35.0821 8.05529 35.2902 8.74435 35.2902C9.31037 35.2261 9.9133 34.97 10.5531 34.5218C11.1192 34.1377 11.759 33.5294 12.4727 32.697C13.211 31.8327 13.9985 30.6001 14.8352 28.9994C14.786 27.975 14.749 27.1266 14.7244 26.4543C14.7244 25.782 14.7121 25.2378 14.6875 24.8216C14.6629 24.3414 14.6506 23.9572 14.6506 23.6691V22.9488C14.6506 22.7567 14.6506 22.5486 14.6506 22.3245C14.6506 22.1004 14.6629 21.8923 14.6875 21.7002C13.9985 21.0599 13.3832 20.5157 12.8418 20.0675C12.325 19.5873 11.8082 19.2351 11.2914 19.011C10.7992 18.7549 10.2824 18.6429 9.74103 18.6749C9.22423 18.6749 8.6213 18.835 7.93224 19.1551Z" fill="#FDF5F5"/>
<path d="M31.3358 16.514C31.9756 16.514 32.6401 16.674 33.3291 16.9942C34.0182 17.2823 34.6826 17.6665 35.3225 18.1467C35.9623 18.5949 36.5406 19.0911 37.0574 19.6353C37.5988 20.1475 38.0418 20.6438 38.3863 21.124C39.0016 21.9883 39.4199 23.1569 39.6414 24.6295C39.8875 26.0701 39.9367 27.5588 39.7891 29.0955C39.6414 30.6001 39.2969 32.0247 38.7555 33.3693C38.2141 34.7139 37.4635 35.7063 36.5037 36.3466C35.8147 36.7948 35.1379 37.147 34.4735 37.4031C33.809 37.6592 33.1692 37.8513 32.5539 37.9793C31.9387 38.1074 31.3604 38.1714 30.819 38.1714C30.2776 38.1714 29.81 38.1554 29.4162 38.1234C28.6779 38.0594 27.9028 37.7232 27.0906 37.115C26.3031 36.5067 25.5526 35.7544 24.8389 34.858C24.1498 33.9616 23.5592 32.9852 23.067 31.9287C22.5748 30.8402 22.2795 29.8158 22.1811 28.8554C22.0334 27.5428 22.0088 26.1662 22.1072 24.7255C22.2057 23.2849 22.5625 21.9563 23.1777 20.7398C23.8176 19.5233 24.7774 18.5148 26.057 17.7145C27.3613 16.9141 29.1209 16.514 31.3358 16.514ZM30.1176 35.1461C30.3883 35.2101 30.7574 35.1301 31.225 34.906C31.6926 34.6499 32.1479 34.2497 32.5908 33.7055C33.0584 33.1612 33.4645 32.4729 33.809 31.6406C34.1781 30.7762 34.3996 29.7357 34.4735 28.5192C34.5473 27.3347 34.5473 26.2462 34.4735 25.2538C34.4242 24.2613 34.3135 23.397 34.1412 22.6606C33.969 21.8923 33.7721 21.268 33.5506 20.7878C33.3291 20.3076 33.0953 19.9715 32.8492 19.7794C32.4309 19.4913 31.9264 19.2672 31.3358 19.1071C30.7451 18.915 30.2406 18.947 29.8223 19.2031C29.6254 19.3312 29.3793 19.6033 29.084 20.0195C28.7887 20.4357 28.4934 20.9639 28.1981 21.6042C27.9028 22.2124 27.632 22.9168 27.386 23.7171C27.1645 24.5175 27.0045 25.3498 26.9061 26.2142C26.8076 27.0786 26.783 28.007 26.8322 28.9994C26.9061 29.9918 27.066 30.9363 27.3121 31.8327C27.5582 32.697 27.9028 33.4494 28.3457 34.0896C28.8133 34.6979 29.4039 35.0501 30.1176 35.1461Z" fill="#FDF5F5"/>
</svg>
