<svg width="232" height="89" viewBox="0 0 232 89" fill="none" xmlns="http://www.w3.org/2000/svg">
<path d="M3.77461 0.93769C5.47848 1.01602 6.96936 1.05519 8.24726 1.05519C9.52515 0.976856 10.5634 0.93769 11.3621 0.93769H13.6783C14.264 0.859357 14.9828 0.82019 15.8348 0.82019C16.5802 0.82019 17.4854 0.82019 18.5503 0.82019C19.6152 0.82019 20.8399 0.859357 22.2243 0.93769C22.6502 3.13101 23.1294 5.28517 23.6619 7.40016C24.2476 9.43681 24.7534 11.2776 25.1794 12.9226C25.7119 14.881 26.2443 16.7218 26.7768 18.4451C27.3092 20.1684 27.9482 22.2442 28.6936 24.6726C29.3326 26.7092 30.1046 29.2159 31.0098 32.1925C31.915 35.0909 32.9799 38.42 34.2046 42.18C34.7903 39.7517 35.3227 37.5192 35.8019 35.4825C36.3344 33.4459 36.787 31.6834 37.1597 30.195C37.5857 28.4717 37.9318 26.9051 38.198 25.4951C38.4642 24.0851 38.7571 22.3617 39.0765 20.3251C39.3428 18.6018 39.6356 16.5259 39.9551 14.0976C40.3278 11.6693 40.7005 8.84932 41.0733 5.63767C42.6174 5.63767 44.0018 5.63767 45.2264 5.63767C46.4511 5.63767 47.516 5.5985 48.4212 5.52017C49.4328 5.52017 50.338 5.481 51.1367 5.40267C51.9886 5.40267 53.1334 5.32433 54.5711 5.16767C55.7957 5.011 57.4197 4.8935 59.443 4.81517C61.5196 4.6585 64.0754 4.46267 67.1104 4.22767C65.9923 5.40267 65.0871 6.57766 64.3949 7.75266C63.7559 8.84932 63.2501 9.82848 62.8774 10.6901C62.4514 11.7085 62.1852 12.6876 62.0787 13.6276C61.9722 14.411 61.8657 16.2126 61.7592 19.0326C61.706 21.8526 61.6261 25.2209 61.5196 29.1375C61.4664 32.9759 61.4131 37.0883 61.3599 41.475C61.3599 45.8616 61.3865 50.0133 61.4398 53.9299C61.493 57.8466 61.5729 61.2541 61.6794 64.1524C61.8391 66.9724 62.0521 68.774 62.3183 69.5574C62.691 70.4973 63.1969 71.594 63.8358 72.8473C64.4215 73.944 65.167 75.1973 66.0721 76.6073C67.0306 78.0173 68.2818 79.584 69.826 81.3073C67.3767 81.464 65.3267 81.5815 63.6761 81.6598C62.0787 81.7381 60.7476 81.8165 59.6826 81.8948C58.458 81.9731 57.4729 82.0123 56.7275 82.0123C55.9288 82.0123 54.8373 82.0515 53.4529 82.1298C52.2282 82.2081 50.6042 82.3256 48.5809 82.4823C46.5576 82.5606 43.9485 82.7173 40.7538 82.9523C41.4992 81.699 42.1914 80.4456 42.8304 79.1923C43.4693 77.939 44.0018 76.8031 44.4277 75.7848C44.9602 74.6098 45.4128 73.474 45.7855 72.3773C46.1582 70.889 46.4511 68.1865 46.6641 64.2699C46.877 60.9016 47.0368 56.0841 47.1433 49.8174C47.2498 43.4725 47.2498 34.9734 47.1433 24.3201C46.1316 26.7484 45.2264 29.1767 44.4277 31.605C43.6823 33.955 43.0167 36.1092 42.431 38.0675C41.7921 40.3392 41.2064 42.5325 40.6739 44.6475C40.1415 46.8408 39.5824 49.2691 38.9967 51.9324C38.4642 54.2041 37.8253 56.9066 37.0798 60.0399C36.3876 63.1732 35.5889 66.6199 34.6838 70.3798L31.6488 70.6148C31.2228 67.4815 30.7968 64.6615 30.3709 62.1549C29.9449 59.5699 29.5189 57.3766 29.093 55.5749C28.6138 53.4599 28.1345 51.5799 27.6553 49.9349C27.1229 48.29 26.5372 46.4491 25.8982 44.4125C25.3125 42.6891 24.5937 40.6525 23.7418 38.3025C22.9431 35.9525 22.0113 33.3284 20.9464 30.43C20.4139 38.42 20.0944 44.9216 19.9879 49.9349C19.8815 54.8699 19.8815 58.7082 19.9879 61.4499C20.0944 64.7399 20.2542 67.129 20.4672 68.6174C20.7866 69.949 21.2925 71.4373 21.9847 73.0823C22.5704 74.4923 23.369 76.1765 24.3807 78.1348C25.4456 80.0148 26.8034 82.1298 28.454 84.4798C27.2826 84.4798 26.058 84.4798 24.7801 84.4798C23.5022 84.4798 22.3308 84.5189 21.2658 84.5973C19.9879 84.6756 18.7367 84.7148 17.512 84.7148C16.2341 84.7931 14.7432 84.9106 13.0394 85.0673C11.5485 85.2239 9.76476 85.3806 7.68818 85.5373C5.61159 85.6939 3.21553 85.9681 0.5 86.3598C1.67141 85.2631 2.62983 84.2056 3.37527 83.1873C4.12071 82.0906 4.70641 81.1115 5.13238 80.2498C5.66484 79.2315 6.06418 78.2131 6.33041 77.1948C6.49015 76.5681 6.62326 75.1973 6.72975 73.0823C6.88949 70.9673 7.0226 68.3824 7.1291 65.3274C7.28883 62.2724 7.39532 58.8649 7.44857 55.1049C7.55506 51.3449 7.63493 47.5458 7.68818 43.7075C7.79467 39.7908 7.87454 35.9917 7.92778 32.31C7.98103 28.5501 8.00765 25.1817 8.00765 22.2051C8.0609 19.1501 8.08752 16.6043 8.08752 14.5676C8.08752 12.531 8.08752 11.2385 8.08752 10.6901C7.92778 9.51515 7.68818 8.34015 7.3687 7.16516C7.10247 6.14683 6.67651 5.08934 6.0908 3.99267C5.5051 2.89601 4.73304 1.87769 3.77461 0.93769Z" fill="#FDF5F5"/>
<path d="M91.2308 32.545C92.6151 32.545 94.0528 32.9367 95.5437 33.72C97.0345 34.425 98.4722 35.365 99.8566 36.54C101.241 37.6367 102.492 38.8508 103.61 40.1825C104.782 41.4358 105.74 42.65 106.486 43.825C107.817 45.94 108.722 48.7991 109.201 52.4024C109.734 55.9274 109.84 59.5699 109.521 63.3299C109.201 67.0115 108.456 70.4973 107.284 73.7873C106.113 77.0773 104.489 79.5056 102.412 81.0723C100.921 82.169 99.4572 83.0306 98.0196 83.6573C96.5819 84.2839 95.1976 84.7539 93.8664 85.0673C92.5353 85.3806 91.284 85.5373 90.1126 85.5373C88.9412 85.5373 87.9295 85.4981 87.0776 85.4198C85.4802 85.2631 83.803 84.4406 82.0459 82.9523C80.342 81.464 78.718 79.6231 77.1739 77.4298C75.683 75.2365 74.4051 72.8473 73.3402 70.2623C72.2753 67.599 71.6363 65.0924 71.4233 62.7424C71.1039 59.5307 71.0506 56.1624 71.2636 52.6374C71.4766 49.1124 72.2486 45.8616 73.5798 42.885C74.9642 39.9083 77.0408 37.4408 79.8095 35.4825C82.6316 33.5242 86.4386 32.545 91.2308 32.545ZM88.5951 78.1348C89.1808 78.2915 89.9795 78.0956 90.9911 77.5473C92.0028 76.9206 92.9879 75.9415 93.9463 74.6098C94.9579 73.2782 95.8365 71.594 96.5819 69.5574C97.3806 67.4424 97.8598 64.8965 98.0196 61.9199C98.1793 59.0216 98.1793 56.3582 98.0196 53.9299C97.9131 51.5016 97.6735 49.3866 97.3008 47.585C96.928 45.705 96.5021 44.1775 96.0229 43.0025C95.5437 41.8275 95.0378 41.005 94.5054 40.535C93.6002 39.83 92.5086 39.2817 91.2308 38.89C89.9529 38.42 88.8613 38.4983 87.9561 39.125C87.5302 39.4383 86.9977 40.1042 86.3588 41.1225C85.7198 42.1408 85.0809 43.4333 84.4419 45C83.803 46.4883 83.2173 48.2116 82.6848 50.1699C82.2056 52.1283 81.8595 54.1649 81.6465 56.2799C81.4335 58.3949 81.3803 60.6666 81.4868 63.0949C81.6465 65.5232 81.9926 67.834 82.5251 70.0273C83.0575 72.1423 83.803 73.9832 84.7614 75.5498C85.7731 77.0381 87.051 77.8998 88.5951 78.1348Z" fill="#FDF5F5"/>
<path d="M112.556 28.9025C113.567 28.9809 114.473 29.0201 115.271 29.0201C116.123 28.9417 116.842 28.8634 117.428 28.7851C118.12 28.7067 118.732 28.6284 119.265 28.5501C120.063 28.3934 120.889 28.1976 121.741 27.9626C122.486 27.8059 123.258 27.6101 124.057 27.3751C124.909 27.0617 125.734 26.7092 126.533 26.3176C126.213 27.4926 125.947 28.5109 125.734 29.3725C125.521 30.2342 125.361 30.9784 125.255 31.605C125.095 32.31 125.015 32.8975 125.015 33.3675C124.962 33.9159 124.935 34.5817 124.935 35.365C124.882 36.6967 124.882 38.8508 124.935 41.8275C127.704 38.3025 130.02 35.5609 131.884 33.6025C133.801 31.6442 135.318 30.1167 136.436 29.0201C137.768 27.7667 138.806 26.9442 139.551 26.5526C141.521 26.0826 143.252 26.7484 144.743 28.5501C145.382 29.3334 145.994 30.3909 146.58 31.7225C147.165 32.9759 147.671 34.66 148.097 36.775C148.523 38.89 148.843 41.4358 149.056 44.4125C149.269 47.3108 149.295 50.7966 149.135 54.8699C148.017 55.0266 147.006 55.1833 146.1 55.3399C145.249 55.4966 144.53 55.6141 143.944 55.6924C143.252 55.8491 142.613 55.9274 142.027 55.9274L139.871 56.2799C139.125 56.4366 138.193 56.5932 137.075 56.7499C136.01 56.8282 134.706 56.9849 133.162 57.2199C135.398 54.5566 136.836 52.2458 137.475 50.2874C138.167 48.2508 138.46 46.5666 138.353 45.235C138.247 43.7466 137.768 42.4541 136.916 41.3575C135.904 40.4958 134.812 40.1825 133.641 40.4175C132.629 40.5742 131.458 41.24 130.127 42.415C128.796 43.59 127.385 45.7833 125.894 48.9949C126 54.0083 126.107 58.1599 126.213 61.4499C126.373 64.7399 126.506 67.4032 126.613 69.4398C126.772 71.7898 126.905 73.6307 127.012 74.9623C127.172 76.1373 127.491 77.3906 127.97 78.7223C128.343 79.819 128.875 81.0331 129.568 82.3648C130.26 83.6964 131.165 85.0281 132.283 86.3598C129.94 86.2031 128.024 86.2031 126.533 86.3598C125.627 86.4381 124.829 86.5164 124.137 86.5948C123.391 86.7514 122.592 86.9081 121.741 87.0648C120.995 87.2214 120.117 87.3781 119.105 87.5348C118.146 87.7698 117.082 88.0048 115.91 88.2398C116.336 87.3781 116.682 86.3598 116.948 85.1848C117.215 84.0881 117.428 83.0306 117.587 82.0123C117.8 80.8373 117.96 79.6231 118.067 78.3698C118.12 77.2731 118.146 75.6282 118.146 73.4348C118.2 71.2415 118.173 68.774 118.067 66.0324C118.013 63.2124 117.933 60.3141 117.827 57.3374C117.721 54.2824 117.587 51.4233 117.428 48.76C117.268 46.0966 117.082 43.7858 116.869 41.8275C116.709 39.7908 116.522 38.3808 116.309 37.5975C116.043 36.6575 115.724 35.7175 115.351 34.7775C115.032 33.9159 114.632 33.015 114.153 32.075C113.674 31.0567 113.141 29.9992 112.556 28.9025Z" fill="#FDF5F5"/>
<path d="M151.691 28.9025C152.703 28.9809 153.608 29.0201 154.407 29.0201C155.259 28.9417 155.978 28.8634 156.563 28.7851C157.255 28.7067 157.868 28.6284 158.4 28.5501C159.199 28.3934 160.024 28.1976 160.876 27.9626C161.622 27.8059 162.394 27.6101 163.192 27.3751C164.044 27.0617 164.87 26.7092 165.668 26.3176C165.349 27.4926 165.083 28.5109 164.87 29.3725C164.657 30.2342 164.497 30.9784 164.39 31.605C164.231 32.31 164.151 32.8975 164.151 33.3675C164.098 33.9159 164.071 34.5817 164.071 35.365C164.018 36.6967 164.018 38.8508 164.071 41.8275C166.84 38.3025 169.156 35.5609 171.02 33.6025C172.936 31.6442 174.454 30.1167 175.572 29.0201C176.903 27.7667 177.941 26.9442 178.687 26.5526C180.657 26.0826 182.387 26.7484 183.878 28.5501C184.517 29.3334 185.13 30.3909 185.715 31.7225C186.301 32.9759 186.807 34.66 187.233 36.775C187.659 38.89 187.978 41.4358 188.191 44.4125C188.404 47.3108 188.431 50.7966 188.271 54.8699C187.153 55.0266 186.141 55.1833 185.236 55.3399C184.384 55.4966 183.665 55.6141 183.08 55.6924C182.387 55.8491 181.749 55.9274 181.163 55.9274L179.006 56.2799C178.261 56.4366 177.329 56.5932 176.211 56.7499C175.146 56.8282 173.842 56.9849 172.297 57.2199C174.534 54.5566 175.971 52.2458 176.61 50.2874C177.302 48.2508 177.595 46.5666 177.489 45.235C177.382 43.7466 176.903 42.4541 176.051 41.3575C175.04 40.4958 173.948 40.1825 172.777 40.4175C171.765 40.5742 170.594 41.24 169.262 42.415C167.931 43.59 166.52 45.7833 165.029 48.9949C165.136 54.0083 165.242 58.1599 165.349 61.4499C165.509 64.7399 165.642 67.4032 165.748 69.4398C165.908 71.7898 166.041 73.6307 166.148 74.9623C166.307 76.1373 166.627 77.3906 167.106 78.7223C167.479 79.819 168.011 81.0331 168.703 82.3648C169.395 83.6964 170.301 85.0281 171.419 86.3598C169.076 86.2031 167.159 86.2031 165.668 86.3598C164.763 86.4381 163.964 86.5164 163.272 86.5948C162.527 86.7514 161.728 86.9081 160.876 87.0648C160.131 87.2214 159.252 87.3781 158.241 87.5348C157.282 87.7698 156.217 88.0048 155.046 88.2398C155.472 87.3781 155.818 86.3598 156.084 85.1848C156.35 84.0881 156.563 83.0306 156.723 82.0123C156.936 80.8373 157.096 79.6231 157.202 78.3698C157.255 77.2731 157.282 75.6282 157.282 73.4348C157.335 71.2415 157.309 68.774 157.202 66.0324C157.149 63.2124 157.069 60.3141 156.963 57.3374C156.856 54.2824 156.723 51.4233 156.563 48.76C156.404 46.0966 156.217 43.7858 156.004 41.8275C155.844 39.7908 155.658 38.3808 155.445 37.5975C155.179 36.6575 154.859 35.7175 154.487 34.7775C154.167 33.9159 153.768 33.015 153.289 32.075C152.809 31.0567 152.277 29.9992 151.691 28.9025Z" fill="#FDF5F5"/>
<path d="M213.03 32.545C214.415 32.545 215.852 32.9367 217.343 33.72C218.834 34.425 220.272 35.365 221.656 36.54C223.041 37.6367 224.292 38.8508 225.41 40.1825C226.581 41.4358 227.54 42.65 228.285 43.825C229.616 45.94 230.522 48.7991 231.001 52.4024C231.533 55.9274 231.64 59.5699 231.32 63.3299C231.001 67.0115 230.255 70.4973 229.084 73.7873C227.913 77.0773 226.289 79.5056 224.212 81.0723C222.721 82.169 221.257 83.0306 219.819 83.6573C218.382 84.2839 216.997 84.7539 215.666 85.0673C214.335 85.3806 213.084 85.5373 211.912 85.5373C210.741 85.5373 209.729 85.4981 208.877 85.4198C207.28 85.2631 205.603 84.4406 203.845 82.9523C202.142 81.464 200.518 79.6231 198.974 77.4298C197.483 75.2365 196.205 72.8473 195.14 70.2623C194.075 67.599 193.436 65.0924 193.223 62.7424C192.903 59.5307 192.85 56.1624 193.063 52.6374C193.276 49.1124 194.048 45.8616 195.379 42.885C196.764 39.9083 198.84 37.4408 201.609 35.4825C204.431 33.5242 208.238 32.545 213.03 32.545ZM210.395 78.1348C210.98 78.2915 211.779 78.0956 212.791 77.5473C213.802 76.9206 214.787 75.9415 215.746 74.6098C216.758 73.2782 217.636 71.594 218.382 69.5574C219.18 67.4424 219.659 64.8965 219.819 61.9199C219.979 59.0216 219.979 56.3582 219.819 53.9299C219.713 51.5016 219.473 49.3866 219.1 47.585C218.728 45.705 218.302 44.1775 217.823 43.0025C217.343 41.8275 216.837 41.005 216.305 40.535C215.4 39.83 214.308 39.2817 213.03 38.89C211.752 38.42 210.661 38.4983 209.756 39.125C209.33 39.4383 208.797 40.1042 208.158 41.1225C207.519 42.1408 206.881 43.4333 206.242 45C205.603 46.4883 205.017 48.2116 204.484 50.1699C204.005 52.1283 203.659 54.1649 203.446 56.2799C203.233 58.3949 203.18 60.6666 203.286 63.0949C203.446 65.5232 203.792 67.834 204.325 70.0273C204.857 72.1423 205.603 73.9832 206.561 75.5498C207.573 77.0381 208.851 77.8998 210.395 78.1348Z" fill="#FDF5F5"/>
</svg>
