<svg width="277" height="73" viewBox="0 0 277 73" fill="none" xmlns="http://www.w3.org/2000/svg">
<path d="M0.449997 1.43421C2.35933 2.01237 4.06768 2.46205 5.57505 2.78325C7.13267 3.04022 8.43905 3.23294 9.49421 3.36142C10.7504 3.55414 11.8558 3.61838 12.8104 3.55414C14.0163 3.4899 15.5237 3.26506 17.3325 2.87961C19.1414 2.49417 21.0507 2.10873 23.0605 1.72329C25.0704 1.33784 27.0551 1.01664 29.0146 0.759681C30.9742 0.50272 32.6826 0.4706 34.1397 0.663321C35.5968 0.856042 37.1293 1.30572 38.7372 2.01237C40.345 2.65477 41.8524 3.55414 43.2593 4.71046C44.6662 5.80255 45.872 7.1516 46.877 8.75761C47.9321 10.3636 48.5853 12.2266 48.8365 14.3465C49.0878 16.4022 48.937 18.6185 48.3843 20.9954C47.8316 23.3081 46.9523 25.5886 45.7464 27.837C44.5405 30.0212 43.0332 32.0447 41.2243 33.9077C39.4155 35.7707 37.4057 37.2803 35.1949 38.4367C33.4363 39.2718 31.5269 39.9142 29.4668 40.3639C27.7083 40.7493 25.6482 41.0063 23.2866 41.1348C20.9753 41.199 18.5133 40.8778 15.9005 40.1712C15.5488 42.0341 15.3478 43.7686 15.2976 45.3746C15.2976 46.9164 15.3478 48.2976 15.4483 49.5181C15.5991 50.9314 15.8 52.2162 16.0513 53.3726C16.3527 54.5289 16.7296 55.8779 17.1818 57.4197C17.5838 58.7045 18.036 60.2784 18.5384 62.1414C19.0911 63.9401 19.7443 65.9637 20.498 68.2121C19.5936 68.2121 18.7143 68.2442 17.8601 68.3084C17.0059 68.3084 16.2271 68.3406 15.5237 68.4048C14.7198 68.469 13.9661 68.5333 13.2626 68.5975C12.4587 68.6618 11.5543 68.7902 10.5494 68.983C9.69519 69.1114 8.61491 69.3042 7.30853 69.5611C6.05238 69.8181 4.62038 70.1393 3.01252 70.5247C4.06768 68.5975 4.89674 66.8309 5.49968 65.2249C6.15288 63.5547 6.63021 62.1092 6.93168 60.8887C7.2834 59.4754 7.50951 58.1906 7.61 57.0343C7.66024 56.0706 7.66024 54.3683 7.61 51.9271C7.61 49.486 7.58488 46.6594 7.53463 43.4474C7.48439 40.2354 7.40902 36.8628 7.30853 33.3296C7.20803 29.7963 7.08242 26.488 6.93168 23.4044C6.78095 20.2566 6.60509 17.5585 6.4041 15.3101C6.25337 13.0617 6.10263 11.5842 5.95189 10.8775C5.75091 10.0424 5.39919 9.14305 4.89674 8.17945C4.49477 7.34432 3.91695 6.38071 3.16326 5.28863C2.45982 4.1323 1.5554 2.84749 0.449997 1.43421ZM16.0513 20.4172C16.001 21.0596 15.9759 21.7342 15.9759 22.4408C15.9759 23.7899 16.0513 25.5243 16.202 27.6443C16.5537 28.7364 16.9808 29.6357 17.4833 30.3424C18.036 31.049 18.6138 31.5951 19.2167 31.9805C19.8699 32.3659 20.5231 32.6229 21.1763 32.7514C21.8295 32.8799 22.4827 32.9441 23.1359 32.9441C24.6433 32.8799 26.226 32.4302 27.8841 31.5951C30.0949 30.3745 31.6525 28.64 32.557 26.3916C33.4614 24.1432 33.9387 21.8305 33.989 19.4536C34.0392 17.0767 33.7126 14.8926 33.0092 12.9011C32.356 10.9097 31.552 9.56061 30.5974 8.85397C29.7934 8.40429 28.7634 8.21157 27.5073 8.27581C26.4019 8.34005 25.0201 8.69337 23.362 9.33577C21.7039 9.97818 19.669 11.1345 17.2572 12.8048C17.0059 13.9611 16.805 14.9889 16.6542 15.8883C16.5035 16.7877 16.3779 17.5907 16.2774 18.2973C16.1769 19.0682 16.1015 19.7748 16.0513 20.4172Z" fill="#FDF5F5"/>
<path d="M49.2887 27.3552L63.1565 27.5479C62.3526 31.4666 61.7497 34.8071 61.3477 37.5694C60.996 40.3318 60.7699 42.6444 60.6694 44.5074C60.4684 46.6273 60.4182 48.426 60.5187 49.9036C60.6694 51.2526 60.9206 52.698 61.2723 54.2398C61.5738 55.5246 62.026 57.0021 62.629 58.6724C63.2319 60.3426 64.0358 62.0129 65.0408 63.6831C64.4378 63.4262 63.7846 63.2335 63.0812 63.105C62.3777 62.9765 61.7245 62.8801 61.1216 62.8159C60.4182 62.7516 59.7147 62.7516 59.0113 62.8159C58.3078 62.8801 57.529 62.9765 56.6749 63.105C55.9714 63.2335 55.1172 63.3941 54.1123 63.5868C53.1074 63.7795 52.0523 64.0365 50.9469 64.3577C51.7005 61.4668 52.2784 58.9615 52.6803 56.8415C53.1325 54.7216 53.4591 52.955 53.6601 51.5417C53.8611 49.8715 53.9867 48.5224 54.037 47.4946C54.037 46.2098 54.037 44.7643 54.037 43.1583C54.037 41.4881 54.037 39.8821 54.037 38.3403C54.037 36.7985 54.0118 35.4495 53.9616 34.2932C53.9114 33.0726 53.8109 32.3017 53.6601 31.9805L52.9064 31.0169C52.605 30.6957 52.1528 30.246 51.5498 29.6679C50.9971 29.0254 50.2434 28.2546 49.2887 27.3552ZM54.6399 12.5157C55.6951 11.809 56.7502 11.6163 57.8054 11.9375C58.9108 12.2587 59.765 12.869 60.3679 13.7684C60.9709 14.6677 61.1718 15.7277 60.9709 16.9483C60.8201 18.1688 60.0162 19.3573 58.5591 20.5136C57.1019 21.6057 55.8207 21.9911 54.7153 21.6699C53.6099 21.3487 52.8311 20.6742 52.3789 19.6464C51.9266 18.6185 51.8513 17.4301 52.1528 16.081C52.4542 14.6677 53.2833 13.4793 54.6399 12.5157Z" fill="#FDF5F5"/>
<path d="M67.0003 14.6356C69.3116 14.8926 71.3466 15.0853 73.1052 15.2138C74.914 15.278 76.4214 15.3744 77.6273 15.5028C79.0342 15.6313 80.2652 15.7277 81.3203 15.7919C82.4257 15.8562 83.8326 15.8562 85.541 15.7919C86.9981 15.7919 88.8572 15.7598 91.1182 15.6956C93.4295 15.5671 96.2433 15.3744 99.5595 15.1174L98.9566 28.5115C97.4994 30.3745 96.193 32.109 95.0374 33.715C93.932 35.321 92.9522 36.7022 92.098 37.8585C91.1434 39.2076 90.2892 40.4281 89.5355 41.5202C88.7818 42.6765 87.9276 44.0577 86.973 45.6637C86.1188 47.077 85.0888 48.8115 83.8829 50.8672C82.677 52.8586 81.2952 55.2034 79.7376 57.9015C82.5011 57.7088 84.7622 57.5161 86.5208 57.3233C88.2794 57.0664 89.6611 56.8415 90.666 56.6488C91.8719 56.3918 92.7512 56.1991 93.3039 56.0706C93.8064 55.8137 94.3842 55.2676 95.0374 54.4325C95.5901 53.7259 96.2684 52.6659 97.0723 51.2526C97.8763 49.8393 98.7807 47.9121 99.7856 45.471C99.7856 47.4624 99.7856 49.1648 99.7856 50.5781C99.8359 51.9271 99.861 53.0513 99.861 53.9507V58.7687C99.861 59.4754 99.861 60.3426 99.861 61.3705C99.9112 62.3983 99.9615 63.5547 100.012 64.8395C98.0521 64.5183 96.2684 64.2934 94.6606 64.1649C93.0527 63.9722 91.6709 63.8437 90.5153 63.7795C89.1587 63.7153 87.9276 63.7153 86.8222 63.7795C85.7168 63.908 84.3351 64.0365 82.677 64.1649C81.2701 64.2934 79.5366 64.4219 77.4765 64.5504C75.4165 64.6789 72.9796 64.8395 70.1658 65.0322L68.5077 54.818C69.4121 54.304 70.4924 53.3083 71.7486 51.8308C73.0047 50.3533 74.2106 48.8436 75.3662 47.3018C76.6726 45.5031 78.0544 43.5438 79.5115 41.4238C80.9184 39.3039 82.3001 37.184 83.6568 35.064C84.8124 33.2653 86.0183 31.4023 87.2744 29.4751C88.5808 27.5479 89.7114 25.8456 90.666 24.368C87.9528 24.4965 85.7168 24.7535 83.9582 25.1389C82.1996 25.4601 80.8179 25.7813 79.813 26.1025C78.6071 26.488 77.7027 26.9376 77.0997 27.4516C76.547 28.0297 75.8687 28.897 75.0648 30.0533C74.3613 31.0169 73.5071 32.3338 72.5022 34.0041C71.4973 35.6101 70.3417 37.6979 69.0353 40.2675C69.0353 38.1476 69.0102 36.2525 68.9599 34.5822C68.9097 32.8478 68.8594 31.4023 68.8092 30.246C68.7087 28.897 68.6333 27.7085 68.5831 26.6807C68.4826 25.6528 68.357 24.5286 68.2062 23.3081C68.1057 22.216 67.9299 20.9633 67.6786 19.55C67.4777 18.0725 67.2516 16.4343 67.0003 14.6356Z" fill="#FDF5F5"/>
<path d="M101.896 14.6356C104.207 14.8926 106.242 15.0853 108.001 15.2138C109.81 15.278 111.317 15.3744 112.523 15.5028C113.93 15.6313 115.161 15.7277 116.216 15.7919C117.321 15.8562 118.728 15.8562 120.437 15.7919C121.894 15.7919 123.753 15.7598 126.014 15.6956C128.325 15.5671 131.139 15.3744 134.455 15.1174L133.852 28.5115C132.395 30.3745 131.089 32.109 129.933 33.715C128.828 35.321 127.848 36.7022 126.994 37.8585C126.039 39.2076 125.185 40.4281 124.431 41.5202C123.677 42.6765 122.823 44.0577 121.869 45.6637C121.014 47.077 119.984 48.8115 118.778 50.8672C117.573 52.8586 116.191 55.2034 114.633 57.9015C117.397 57.7088 119.658 57.5161 121.416 57.3233C123.175 57.0664 124.557 56.8415 125.562 56.6488C126.768 56.3918 127.647 56.1991 128.2 56.0706C128.702 55.8137 129.28 55.2676 129.933 54.4325C130.486 53.7259 131.164 52.6659 131.968 51.2526C132.772 49.8393 133.676 47.9121 134.681 45.471C134.681 47.4624 134.681 49.1648 134.681 50.5781C134.731 51.9271 134.757 53.0513 134.757 53.9507V58.7687C134.757 59.4754 134.757 60.3426 134.757 61.3705C134.807 62.3983 134.857 63.5547 134.907 64.8395C132.948 64.5183 131.164 64.2934 129.556 64.1649C127.948 63.9722 126.567 63.8437 125.411 63.7795C124.054 63.7153 122.823 63.7153 121.718 63.7795C120.612 63.908 119.231 64.0365 117.573 64.1649C116.166 64.2934 114.432 64.4219 112.372 64.5504C110.312 64.6789 107.875 64.8395 105.061 65.0322L103.403 54.818C104.308 54.304 105.388 53.3083 106.644 51.8308C107.9 50.3533 109.106 48.8436 110.262 47.3018C111.568 45.5031 112.95 43.5438 114.407 41.4238C115.814 39.3039 117.196 37.184 118.552 35.064C119.708 33.2653 120.914 31.4023 122.17 29.4751C123.476 27.5479 124.607 25.8456 125.562 24.368C122.848 24.4965 120.612 24.7535 118.854 25.1389C117.095 25.4601 115.713 25.7813 114.709 26.1025C113.503 26.488 112.598 26.9376 111.995 27.4516C111.443 28.0297 110.764 28.897 109.96 30.0533C109.257 31.0169 108.403 32.3338 107.398 34.0041C106.393 35.6101 105.237 37.6979 103.931 40.2675C103.931 38.1476 103.906 36.2525 103.856 34.5822C103.805 32.8478 103.755 31.4023 103.705 30.246C103.604 28.897 103.529 27.7085 103.479 26.6807C103.378 25.6528 103.253 24.5286 103.102 23.3081C103.001 22.216 102.825 20.9633 102.574 19.55C102.373 18.0725 102.147 16.4343 101.896 14.6356Z" fill="#FDF5F5"/>
<path d="M143.198 31.4023C143.449 31.0169 143.6 30.3103 143.65 29.2824C143.751 28.1903 143.952 26.9698 144.253 25.6207C144.605 24.2717 145.183 22.8584 145.986 21.3808C146.79 19.9033 148.097 18.5221 149.906 17.2373C151.664 15.9525 153.373 15.1816 155.031 14.9247C156.689 14.6677 158.272 14.7641 159.779 15.2138C161.286 15.6634 162.693 16.3701 164 17.3337C165.356 18.2973 166.587 19.3573 167.693 20.5136C168.446 21.2845 169.049 22.4087 169.501 23.8862C169.954 25.2995 170.305 26.9055 170.557 28.7042C170.808 30.503 170.984 32.3981 171.084 34.3895C171.235 36.3167 171.335 38.2118 171.386 40.0748C171.436 41.8735 171.461 43.5438 171.461 45.0855C171.511 46.5631 171.612 47.7836 171.762 48.7472C171.963 50.1605 172.315 51.3811 172.818 52.4089C173.32 53.3726 173.873 54.2077 174.476 54.9143C175.079 55.5567 175.682 56.0706 176.285 56.4561C176.888 56.8415 177.415 57.1306 177.867 57.3233C178.169 57.5161 178.445 57.6445 178.696 57.7088C179.199 57.9657 179.551 57.9657 179.752 57.7088C179.45 58.6081 179.174 59.379 178.922 60.0214C178.671 60.6638 178.47 61.2099 178.32 61.6596C178.119 62.1735 177.943 62.591 177.792 62.9123C177.641 63.2977 177.465 63.651 177.264 63.9722C177.114 64.2934 176.913 64.6467 176.661 65.0322C176.41 65.4176 176.159 65.8352 175.908 66.2849C175.255 65.9637 174.626 65.5782 174.024 65.1285C173.471 64.6789 172.968 64.2613 172.516 63.8759C171.963 63.4262 171.461 62.9765 171.009 62.5268C170.557 62.0771 170.13 61.5632 169.728 60.985C169.376 60.4711 168.999 59.9251 168.597 59.3469C168.245 58.7687 167.944 58.1263 167.693 57.4197C167.391 58.2548 166.663 59.4433 165.507 60.985C164.401 62.5268 162.944 63.9401 161.136 65.2249C159.327 66.4455 157.216 67.3127 154.805 67.8266C152.443 68.3406 149.83 67.9872 146.966 66.7667C145.71 66.2527 144.529 65.514 143.424 64.5504C142.319 63.5225 141.364 62.302 140.56 60.8887C139.806 59.4754 139.254 57.8694 138.902 56.0706C138.6 54.2077 138.625 52.152 138.977 49.9036C139.329 47.6552 139.957 45.7601 140.861 44.2183C141.766 42.6765 142.846 41.4238 144.102 40.4602C145.358 39.4966 146.765 38.7579 148.323 38.2439C149.881 37.73 151.488 37.3767 153.146 37.184C154.453 37.1197 155.759 37.2161 157.066 37.4731C158.171 37.73 159.327 38.2118 160.533 38.9185C161.738 39.5609 162.769 40.5566 163.623 41.9056C163.572 38.5009 163.472 35.8028 163.321 33.8114C163.221 31.7557 163.12 30.1818 163.02 29.0897C162.819 27.8049 162.643 26.9055 162.492 26.3916C162.241 25.9419 161.965 25.428 161.663 24.8498C161.412 24.2717 161.085 23.7577 160.683 23.3081C160.281 22.7941 159.779 22.3766 159.176 22.0554C158.573 21.7342 157.87 21.6057 157.066 21.6699C156.211 21.7342 155.533 22.0232 155.031 22.5372C154.528 23.0511 154.126 23.6614 153.825 24.368C153.574 25.0104 153.423 25.7171 153.373 26.488C153.322 27.2588 153.347 27.9334 153.448 28.5115C153.548 28.897 153.699 29.3145 153.9 29.7642C154.101 30.1497 154.377 30.5672 154.729 31.0169C155.081 31.4666 155.558 31.852 156.161 32.1732C155.006 32.3659 153.976 32.5266 153.071 32.655C152.167 32.7193 151.388 32.8156 150.735 32.9441C149.981 33.0726 149.328 33.169 148.775 33.2332C148.222 33.2974 147.569 33.4259 146.816 33.6186C146.162 33.7471 145.358 33.9077 144.404 34.1004C143.449 34.2932 142.344 34.5501 141.088 34.8713C141.389 34.4216 141.665 34.0041 141.917 33.6186C142.168 33.169 142.394 32.7835 142.595 32.4623C142.796 32.0769 142.997 31.7235 143.198 31.4023ZM154.503 42.8693C153.599 42.9335 152.694 43.2226 151.79 43.7365C150.885 44.1862 150.081 44.8607 149.378 45.7601C148.675 46.5952 148.072 47.5909 147.569 48.7472C147.117 49.8393 146.891 51.0599 146.891 52.4089C146.891 53.758 147.142 54.9464 147.645 55.9743C148.197 56.9379 148.901 57.7409 149.755 58.3833C150.659 59.0257 151.614 59.4111 152.619 59.5396C153.674 59.6681 154.704 59.5396 155.709 59.1542C156.664 58.7045 157.568 57.9979 158.422 57.0343C159.276 56.0064 160.005 54.9143 160.608 53.758C161.211 52.5374 161.638 51.349 161.889 50.1927C162.14 48.9721 162.166 47.9764 161.965 47.2055C161.563 45.5352 160.658 44.3789 159.251 43.7365C157.844 43.0299 156.262 42.7408 154.503 42.8693Z" fill="#FDF5F5"/>
<path d="M178.244 24.2717C179.199 24.3359 180.053 24.368 180.807 24.368C181.611 24.3038 182.289 24.2395 182.842 24.1753C183.495 24.1111 184.073 24.0468 184.575 23.9826C185.329 23.8541 186.108 23.6935 186.912 23.5008C187.615 23.3723 188.344 23.2117 189.097 23.019C189.901 22.762 190.68 22.4729 191.434 22.1517C191.132 23.1153 190.881 23.9505 190.68 24.6571C190.479 25.3637 190.328 25.974 190.228 26.488C190.077 27.0661 190.002 27.5479 190.002 27.9334C189.951 28.383 189.926 28.9291 189.926 29.5715C189.876 30.6636 189.876 32.4302 189.926 34.8713C192.539 31.9805 194.725 29.7321 196.483 28.1261C198.292 26.5201 199.724 25.2674 200.779 24.368C202.035 23.3402 203.015 22.6657 203.719 22.3444C205.578 21.959 207.211 22.5051 208.618 23.9826C209.221 24.625 209.798 25.4922 210.351 26.5843C210.904 27.6122 211.381 28.9933 211.783 30.7278C212.185 32.4623 212.487 34.5501 212.688 36.9913C212.889 39.3682 212.914 42.2268 212.763 45.5673C211.708 45.6958 210.753 45.8243 209.899 45.9528C209.095 46.0813 208.417 46.1776 207.864 46.2419C207.211 46.3703 206.608 46.4346 206.055 46.4346L204.02 46.7237C203.317 46.8522 202.437 46.9806 201.382 47.1091C200.377 47.1734 199.146 47.3018 197.689 47.4946C199.8 45.3104 201.156 43.4153 201.759 41.8093C202.412 40.139 202.689 38.7579 202.588 37.6658C202.488 36.4452 202.035 35.3852 201.232 34.4859C200.277 33.7792 199.247 33.5223 198.141 33.715C197.187 33.8435 196.081 34.3895 194.825 35.3531C193.569 36.3167 192.238 38.1155 190.831 40.7493C190.931 44.8607 191.032 48.2654 191.132 50.9635C191.283 53.6616 191.409 55.8458 191.509 57.5161C191.66 59.4433 191.785 60.9529 191.886 62.045C192.037 63.0086 192.338 64.0365 192.79 65.1285C193.142 66.0279 193.644 67.0236 194.298 68.1157C194.951 69.2078 195.805 70.2999 196.86 71.392C194.649 71.2635 192.841 71.2635 191.434 71.392C190.579 71.4562 189.826 71.5205 189.173 71.5847C188.469 71.7132 187.715 71.8417 186.912 71.9701C186.208 72.0986 185.379 72.2271 184.424 72.3556C183.52 72.5483 182.515 72.741 181.41 72.9337C181.812 72.2271 182.138 71.392 182.389 70.4284C182.641 69.529 182.842 68.6618 182.992 67.8266C183.193 66.863 183.344 65.8673 183.445 64.8395C183.495 63.9401 183.52 62.591 183.52 60.7923C183.57 58.9936 183.545 56.97 183.445 54.7216C183.394 52.4089 183.319 50.0321 183.218 47.5909C183.118 45.0855 182.992 42.7408 182.842 40.5566C182.691 38.3724 182.515 36.4773 182.314 34.8713C182.163 33.2011 181.987 32.0447 181.786 31.4023C181.535 30.6315 181.234 29.8606 180.882 29.0897C180.581 28.383 180.204 27.6443 179.752 26.8734C179.299 26.0383 178.797 25.171 178.244 24.2717Z" fill="#FDF5F5"/>
<path d="M215.928 27.3552L229.796 27.5479C228.992 31.4666 228.389 34.8071 227.987 37.5694C227.636 40.3318 227.41 42.6444 227.309 44.5074C227.108 46.6273 227.058 48.426 227.158 49.9036C227.309 51.2526 227.56 52.698 227.912 54.2398C228.213 55.5246 228.666 57.0021 229.269 58.6724C229.872 60.3426 230.675 62.0129 231.68 63.6831C231.077 63.4262 230.424 63.2335 229.721 63.105C229.017 62.9765 228.364 62.8801 227.761 62.8159C227.058 62.7516 226.354 62.7516 225.651 62.8159C224.947 62.8801 224.169 62.9765 223.314 63.105C222.611 63.2335 221.757 63.3941 220.752 63.5868C219.747 63.7795 218.692 64.0365 217.586 64.3577C218.34 61.4668 218.918 58.9615 219.32 56.8415C219.772 54.7216 220.099 52.955 220.3 51.5417C220.501 49.8715 220.626 48.5224 220.677 47.4946C220.677 46.2098 220.677 44.7643 220.677 43.1583C220.677 41.4881 220.677 39.8821 220.677 38.3403C220.677 36.7985 220.651 35.4495 220.601 34.2932C220.551 33.0726 220.451 32.3017 220.3 31.9805L219.546 31.0169C219.245 30.6957 218.792 30.246 218.189 29.6679C217.637 29.0254 216.883 28.2546 215.928 27.3552ZM221.28 12.5157C222.335 11.809 223.39 11.6163 224.445 11.9375C225.55 12.2587 226.405 12.869 227.008 13.7684C227.611 14.6677 227.811 15.7277 227.611 16.9483C227.46 18.1688 226.656 19.3573 225.199 20.5136C223.742 21.6057 222.46 21.9911 221.355 21.6699C220.25 21.3487 219.471 20.6742 219.018 19.6464C218.566 18.6185 218.491 17.4301 218.792 16.081C219.094 14.6677 219.923 13.4793 221.28 12.5157Z" fill="#FDF5F5"/>
<path d="M240.046 31.4023C240.298 31.0169 240.448 30.3103 240.499 29.2824C240.599 28.1903 240.8 26.9698 241.101 25.6207C241.453 24.2717 242.031 22.8584 242.835 21.3808C243.639 19.9033 244.945 18.5221 246.754 17.2373C248.513 15.9525 250.221 15.1816 251.879 14.9247C253.537 14.6677 255.12 14.7641 256.627 15.2138C258.135 15.6634 259.542 16.3701 260.848 17.3337C262.205 18.2973 263.436 19.3573 264.541 20.5136C265.295 21.2845 265.898 22.4087 266.35 23.8862C266.802 25.2995 267.154 26.9055 267.405 28.7042C267.656 30.503 267.832 32.3981 267.933 34.3895C268.083 36.3167 268.184 38.2118 268.234 40.0748C268.284 41.8735 268.309 43.5438 268.309 45.0855C268.36 46.5631 268.46 47.7836 268.611 48.7472C268.812 50.1605 269.164 51.3811 269.666 52.4089C270.169 53.3726 270.721 54.2077 271.324 54.9143C271.927 55.5567 272.53 56.0706 273.133 56.4561C273.736 56.8415 274.264 57.1306 274.716 57.3233C275.017 57.5161 275.294 57.6445 275.545 57.7088C276.047 57.9657 276.399 57.9657 276.6 57.7088C276.299 58.6081 276.022 59.379 275.771 60.0214C275.52 60.6638 275.319 61.2099 275.168 61.6596C274.967 62.1735 274.791 62.591 274.64 62.9123C274.49 63.2977 274.314 63.651 274.113 63.9722C273.962 64.2934 273.761 64.6467 273.51 65.0322C273.259 65.4176 273.007 65.8352 272.756 66.2849C272.103 65.9637 271.475 65.5782 270.872 65.1285C270.319 64.6789 269.817 64.2613 269.365 63.8759C268.812 63.4262 268.309 62.9765 267.857 62.5268C267.405 62.0771 266.978 61.5632 266.576 60.985C266.224 60.4711 265.847 59.9251 265.445 59.3469C265.094 58.7687 264.792 58.1263 264.541 57.4197C264.24 58.2548 263.511 59.4433 262.355 60.985C261.25 62.5268 259.793 63.9401 257.984 65.2249C256.175 66.4455 254.065 67.3127 251.653 67.8266C249.291 68.3406 246.679 67.9872 243.815 66.7667C242.559 66.2527 241.378 65.514 240.272 64.5504C239.167 63.5225 238.212 62.302 237.408 60.8887C236.655 59.4754 236.102 57.8694 235.75 56.0706C235.449 54.2077 235.474 52.152 235.826 49.9036C236.177 47.6552 236.805 45.7601 237.71 44.2183C238.614 42.6765 239.695 41.4238 240.951 40.4602C242.207 39.4966 243.614 38.7579 245.171 38.2439C246.729 37.73 248.337 37.3767 249.995 37.184C251.301 37.1197 252.608 37.2161 253.914 37.4731C255.019 37.73 256.175 38.2118 257.381 38.9185C258.587 39.5609 259.617 40.5566 260.471 41.9056C260.421 38.5009 260.32 35.8028 260.17 33.8114C260.069 31.7557 259.969 30.1818 259.868 29.0897C259.667 27.8049 259.491 26.9055 259.341 26.3916C259.089 25.9419 258.813 25.428 258.512 24.8498C258.26 24.2717 257.934 23.7577 257.532 23.3081C257.13 22.7941 256.627 22.3766 256.024 22.0554C255.421 21.7342 254.718 21.6057 253.914 21.6699C253.06 21.7342 252.382 22.0232 251.879 22.5372C251.377 23.0511 250.975 23.6614 250.673 24.368C250.422 25.0104 250.271 25.7171 250.221 26.488C250.171 27.2588 250.196 27.9334 250.296 28.5115C250.397 28.897 250.548 29.3145 250.749 29.7642C250.95 30.1497 251.226 30.5672 251.578 31.0169C251.929 31.4666 252.407 31.852 253.01 32.1732C251.854 32.3659 250.824 32.5266 249.92 32.655C249.015 32.7193 248.236 32.8156 247.583 32.9441C246.829 33.0726 246.176 33.169 245.624 33.2332C245.071 33.2974 244.418 33.4259 243.664 33.6186C243.011 33.7471 242.207 33.9077 241.252 34.1004C240.298 34.2932 239.192 34.5501 237.936 34.8713C238.237 34.4216 238.514 34.0041 238.765 33.6186C239.016 33.169 239.242 32.7835 239.443 32.4623C239.644 32.0769 239.845 31.7235 240.046 31.4023ZM251.352 42.8693C250.447 42.9335 249.543 43.2226 248.638 43.7365C247.734 44.1862 246.93 44.8607 246.227 45.7601C245.523 46.5952 244.92 47.5909 244.418 48.7472C243.965 49.8393 243.739 51.0599 243.739 52.4089C243.739 53.758 243.991 54.9464 244.493 55.9743C245.046 56.9379 245.749 57.7409 246.603 58.3833C247.508 59.0257 248.462 59.4111 249.467 59.5396C250.523 59.6681 251.553 59.5396 252.557 59.1542C253.512 58.7045 254.417 57.9979 255.271 57.0343C256.125 56.0064 256.853 54.9143 257.456 53.758C258.059 52.5374 258.486 51.349 258.738 50.1927C258.989 48.9721 259.014 47.9764 258.813 47.2055C258.411 45.5352 257.507 44.3789 256.1 43.7365C254.693 43.0299 253.11 42.7408 251.352 42.8693Z" fill="#FDF5F5"/>
</svg>
